<?xml version="1.0" encoding="UTF-8" standalone="no"?>
<!-- Created with Inkscape (http://www.inkscape.org/) -->

<svg
   version="1.1"
   id="svg2"
   xml:space="preserve"
   width="1000"
   height="250"
   viewBox="0 0 999.99998 250"
   sodipodi:docname="inductiva-logo-white.svg"
   inkscape:version="1.3.2 (091e20ef0f, 2023-11-25, custom)"
   xmlns:inkscape="http://www.inkscape.org/namespaces/inkscape"
   xmlns:sodipodi="http://sodipodi.sourceforge.net/DTD/sodipodi-0.dtd"
   xmlns="http://www.w3.org/2000/svg"
   xmlns:svg="http://www.w3.org/2000/svg"><defs
     id="defs6"><clipPath
       clipPathUnits="userSpaceOnUse"
       id="clipPath18"><path
         d="M 0,595.276 H 841.89 V 0 H 0 Z"
         id="path16" /></clipPath></defs><sodipodi:namedview
     id="namedview4"
     pagecolor="#ffffff"
     bordercolor="#111111"
     borderopacity="1"
     inkscape:pageshadow="0"
     inkscape:pageopacity="0"
     inkscape:pagecheckerboard="1"
     showgrid="false"
     inkscape:zoom="0.3876316"
     inkscape:cx="434.69108"
     inkscape:cy="407.60351"
     inkscape:window-width="1272"
     inkscape:window-height="1386"
     inkscape:window-x="3202"
     inkscape:window-y="28"
     inkscape:window-maximized="0"
     inkscape:current-layer="g8"
     units="in"
     inkscape:showpageshadow="2"
     inkscape:deskcolor="#d1d1d1" /><g
     id="g8"
     inkscape:groupmode="layer"
     inkscape:label="INDUCTIVA-logo-white"
     transform="matrix(1.3333333,0,0,-1.3333333,0,793.70133)"><g
       id="g2"
       transform="matrix(0.98123521,0,0,0.98123521,123.31317,217.67821)"
       style="fill:#ffffff"><path
         d="m 555.37427,246.27625 c -0.6675,0 -1.25175,0.24975 -1.75275,0.75 -0.501,0.4995 -0.7515,1.083 -0.7515,1.74975 l 0.2505,1.37475 31.0515,80.87518 c 0.6675,1.83334 2.00325,2.75001 4.0065,2.75001 h 8.013 c 2.00325,0 3.339,-0.91667 4.0065,-2.75001 l 31.0515,-80.87518 0.2505,-1.37475 c 0,-0.66675 -0.2925,-1.25025 -0.87675,-1.74975 -0.50025,-0.50025 -1.08525,-0.75 -1.75275,-0.75 h -5.8845 c -0.83475,0 -1.54425,0.20775 -2.1285,0.62475 -0.501,0.50025 -0.83475,0.99975 -1.002,1.5 l -7.01175,17.99992 h -41.44275 l -6.8865,-17.99992 c -0.66825,-1.41675 -1.7115,-2.12475 -3.1305,-2.12475 z m 16.02675,20.12467 h 41.44275 l -20.65875,55.25003 z"
         fill="white"
         id="path1"
         style="fill:#ffffff;stroke-width:0.75" /><path
         d="m 511.74227,246.27625 c -2.1705,0 -3.67275,1.083 -4.5075,3.24975 l -28.1715,80.37493 -0.2505,1.375 c 0,0.66667 0.2505,1.25 0.7515,1.75 0.58425,0.50001 1.20975,0.75001 1.878,0.75001 h 6.00975 c 0.918,0 1.6275,-0.25 2.1285,-0.75001 0.58425,-0.41666 0.96,-0.91666 1.12725,-1.49999 l 24.7905,-71.49994 24.9165,71.49994 c 0.1665,0.58333 0.50025,1.08333 1.00125,1.49999 0.58425,0.50001 1.33575,0.75001 2.25375,0.75001 h 6.00975 c 0.66825,0 1.2525,-0.25 1.7535,-0.75001 0.50025,-0.5 0.75075,-1.08333 0.75075,-1.75 0,-0.58333 -0.0412,-1.04166 -0.12525,-1.375 L 523.88702,249.526 c -0.83475,-2.16675 -2.337,-3.24975 -4.5075,-3.24975 z"
         fill="white"
         id="path2"
         style="fill:#ffffff;stroke-width:0.75" /><path
         d="m 454.46102,246.27625 c -0.83475,0 -1.50225,0.24975 -2.00325,0.75 -0.501,0.58275 -0.7515,1.2915 -0.7515,2.12475 v 81.74994 c 0,0.83333 0.2505,1.5 0.7515,1.99999 0.501,0.58334 1.1685,0.87501 2.00325,0.87501 h 6.26025 c 0.918,0 1.62825,-0.25 2.1285,-0.75001 0.501,-0.5 0.7515,-1.20833 0.7515,-2.12499 V 249.151 c 0,-0.83325 -0.2925,-1.542 -0.87675,-2.12475 -0.50025,-0.50025 -1.1685,-0.75 -2.00325,-0.75 z"
         fill="white"
         id="path3"
         style="fill:#ffffff;stroke-width:0.75" /><path
         d="m 401.47876,246.27625 c -0.834,0 -1.5435,0.24975 -2.1285,0.75 -0.50025,0.58275 -0.75075,1.2915 -0.75075,2.12475 v 73.87492 h -24.165 c -0.83475,0 -1.54425,0.25005 -2.1285,0.75 -0.501,0.58335 -0.7515,1.29165 -0.7515,2.12505 v 4.87497 c 0,0.91666 0.2505,1.625 0.7515,2.12499 0.58425,0.58334 1.29375,0.87501 2.1285,0.87501 h 60.099 c 0.91875,0 1.62825,-0.29167 2.1285,-0.87501 0.501,-0.49999 0.7515,-1.20833 0.7515,-2.12499 v -4.87497 c 0,-0.8334 -0.2925,-1.5417 -0.87675,-2.12505 -0.50025,-0.49995 -1.1685,-0.75 -2.00325,-0.75 H 410.49376 V 249.151 c 0,-0.83325 -0.29175,-1.542 -0.876,-2.12475 -0.58425,-0.50025 -1.29375,-0.75 -2.1285,-0.75 z"
         fill="white"
         id="path4"
         style="fill:#ffffff;stroke-width:0.75" /><path
         d="m 327.47851,245.026 c -11.10225,0 -19.57425,3 -25.4175,9 -5.75925,6.08332 -8.84775,14.37502 -9.2655,24.87502 -0.0832,2.25 -0.1245,5.91668 -0.1245,10.99995 0,5.16668 0.0412,8.91668 0.1245,11.25 0.41775,10.5 3.50625,18.75 9.2655,24.75 5.84325,6.08337 14.31525,9.12503 25.4175,9.12503 7.42875,0 13.731,-1.33334 18.906,-4 5.175,-2.58334 9.05625,-5.99998 11.64375,-10.25 2.6715,-4.25003 4.1325,-8.79165 4.38225,-13.62503 0,-0.75 -0.29175,-1.37497 -0.876,-1.875 -0.501,-0.41662 -1.12725,-0.62497 -1.878,-0.62497 h -6.26025 c -0.83475,0 -1.503,0.20835 -2.00325,0.62497 -0.501,0.4167 -0.87675,1.125 -1.12725,2.12505 -1.419,6.41663 -4.0065,10.91663 -7.7625,13.5 -3.67275,2.5833 -8.68125,3.87495 -15.02475,3.87495 -14.5245,0 -22.0785,-8.08327 -22.66275,-24.24997 -0.0833,-2.25 -0.12525,-5.70833 -0.12525,-10.37498 0,-4.66665 0.042,-8.20837 0.12525,-10.62502 0.58425,-16.0833 8.13825,-24.12525 22.66275,-24.12525 6.26025,0 11.268,1.29225 15.02475,3.87525 3.756,2.58337 6.3435,7.04167 7.7625,13.37505 0.2505,0.99997 0.62625,1.70827 1.12725,2.12497 0.50025,0.41663 1.1685,0.62498 2.00325,0.62498 h 6.26025 c 0.75075,0 1.377,-0.24998 1.878,-0.75 0.58425,-0.41663 0.876,-0.99998 0.876,-1.74998 -0.24975,-4.8333 -1.71075,-9.375 -4.38225,-13.62502 -2.5875,-4.25025 -6.46875,-7.7085 -11.64375,-10.37475 -5.175,-2.58375 -11.47725,-3.87525 -18.906,-3.87525 z"
         fill="white"
         id="path5"
         style="fill:#ffffff;stroke-width:0.75" /><path
         d="m 241.43476,245.026 c -10.76775,0 -19.07325,2.87475 -24.91575,8.625 -5.84325,5.8335 -8.7645,14.62492 -8.7645,26.37495 v 50.74999 c 0,0.91666 0.2505,1.625 0.7515,2.12499 0.50025,0.58334 1.1685,0.87501 2.00325,0.87501 h 6.00975 c 0.918,0 1.6275,-0.29167 2.1285,-0.87501 0.58425,-0.49999 0.876,-1.20833 0.876,-2.12499 v -50.99997 c 0,-8.16667 1.87875,-14.25 5.63475,-18.25005 3.83925,-3.99967 9.2655,-5.99992 16.2765,-5.99992 6.9285,0 12.27075,2.00025 16.02675,5.99992 3.84,4.08338 5.75925,10.1667 5.75925,18.25005 v 50.99997 c 0,0.91666 0.2505,1.625 0.7515,2.12499 0.501,0.58334 1.2105,0.87501 2.1285,0.87501 h 6.00975 c 0.83475,0 1.503,-0.29167 2.00325,-0.87501 0.58425,-0.49999 0.87675,-1.20833 0.87675,-2.12499 v -50.74999 c 0,-11.75003 -2.92125,-20.54145 -8.7645,-26.37495 -5.75925,-5.75025 -14.0235,-8.625 -24.79125,-8.625 z"
         fill="white"
         id="path6"
         style="fill:#ffffff;stroke-width:0.75" /><path
         d="m 125.06026,246.27625 c -0.83475,0 -1.50225,0.24975 -2.00325,0.75 -0.501,0.58275 -0.7515,1.2915 -0.7515,2.12475 v 81.62494 c 0,0.91666 0.2505,1.625 0.7515,2.12499 0.501,0.58334 1.1685,0.87501 2.00325,0.87501 h 28.29675 c 12.60375,0 21.70275,-2.83333 27.29475,-8.50002 5.59275,-5.5833 8.47275,-14.04165 8.63925,-25.37497 0.084,-2.41665 0.12525,-5.6667 0.12525,-9.75 0,-4.0833 -0.0412,-7.37498 -0.12525,-9.87503 -0.1665,-7.91662 -1.46025,-14.37495 -3.88125,-19.37497 -2.337,-4.9167 -6.05175,-8.58345 -11.1435,-10.99995 -5.09175,-2.4165 -11.853,-3.62475 -20.283,-3.62475 z m 28.29675,10.37475 c 5.84325,0 10.47525,0.79125 13.89825,2.37525 3.5055,1.66635 6.00975,4.20802 7.512,7.62472 1.58625,3.49995 2.46225,8.2083 2.6295,14.12498 0.1665,5.00002 0.2505,8.12497 0.2505,9.375 0,1.33335 -0.084,4.41667 -0.2505,9.24997 -0.16725,8.33333 -2.1705,14.41665 -6.00975,18.25005 -3.75675,3.91665 -9.975,5.87498 -18.65625,5.87498 h -18.6555 V 256.651 Z"
         fill="white"
         id="path7"
         style="fill:#ffffff;stroke-width:0.75" /><path
         d="m 38.247004,246.27625 c -0.83475,0 -1.50225,0.24975 -2.00325,0.75 -0.501,0.58275 -0.7515,1.2915 -0.7515,2.12475 v 81.62494 c 0,0.91666 0.2505,1.625 0.7515,2.12499 0.501,0.58334 1.1685,0.87501 2.00325,0.87501 h 5.50875 c 0.83475,0 1.461,-0.16667 1.87875,-0.50001 0.417,-0.33333 0.83475,-0.75 1.25175,-1.24999 l 41.944502,-64.50002 v 63.25002 c 0,0.91666 0.2505,1.625 0.75075,2.12499 0.58425,0.58334 1.29375,0.87501 2.1285,0.87501 h 5.63475 c 0.918,0 1.6275,-0.29167 2.1285,-0.87501 0.584254,-0.49999 0.876004,-1.20833 0.876004,-2.12499 v -81.49969 c 0,-0.834 -0.29175,-1.542 -0.876004,-2.1255 -0.501,-0.5835 -1.1685,-0.8745 -2.00325,-0.8745 h -5.63475 c -1.419,0 -2.42025,0.58275 -3.0045,1.74975 L 46.886254,311.90095 V 249.151 c 0,-0.83325 -0.2925,-1.542 -0.87675,-2.12475 -0.50025,-0.50025 -1.1685,-0.75 -2.00325,-0.75 z"
         fill="white"
         id="path8"
         style="fill:#ffffff;stroke-width:0.75" /><path
         d="m 4.2547533,246.27625 c -0.83475,0 -1.5030001,0.24975 -2.0032501,0.75 -0.501,0.58275 -0.7515,1.2915 -0.7515,2.12475 v 81.74998 c 0,0.83334 0.2505,1.5 0.7515,2 0.50025,0.58333 1.1685001,0.875 2.0032501,0.875 h 6.2602497 c 0.918,0 1.6275,-0.25 2.1285,-0.75 0.501001,-0.5 0.751501,-1.20833 0.751501,-2.125 V 249.151 c 0,-0.83325 -0.2925,-1.542 -0.876751,-2.12475 -0.501,-0.50025 -1.1685,-0.75 -2.00325,-0.75 z"
         fill="white"
         id="path9"
         style="fill:#ffffff;stroke-width:0.75" /><path
         d="m -44.999998,333.526 h -51.091726 c -1.218825,0 -1.928775,-1.37656 -1.2222,-2.36963 l 51.091726,-71.80462 c 0.846825,-1.19025 2.7222,-0.591 2.7222,0.86962 V 332.026 c 0,0.82843 -0.67155,1.5 -1.5,1.5 z"
         fill="white"
         id="path10-3"
         style="fill:#ffffff;stroke-width:0.75" /><path
         d="m -97.499999,243.526 h 51.091726 c 1.218825,0 1.928775,1.37625 1.2222,2.37 l -51.091726,71.80425 c -0.846825,1.1901 -2.7222,0.591 -2.7222,-0.86963 V 245.026 c 0,-0.82875 0.67155,-1.5 1.5,-1.5 z"
         fill="white"
         id="path11"
         style="fill:#ffffff;stroke-width:0.75" /><rect
         y="-333.526"
         width="12"
         height="90"
         rx="1.5"
         fill="white"
         id="rect11"
         style="fill:#ffffff;stroke-width:0.75"
         x="-118.5"
         transform="scale(1,-1)" /></g></g></svg>
