<?xml version="1.0" encoding="UTF-8" standalone="no"?>
<!-- Generator: Adobe Illustrator 27.4.0, SVG Export Plug-In . SVG Version: 6.00 Build 0)  -->

<svg
   version="1.1"
   id="svg2"
   inkscape:version="1.3.2 (091e20ef0f, 2023-11-25, custom)"
   sodipodi:docname="inductiva-logo-black.svg"
   x="0px"
   y="0px"
   viewBox="0 0 1000 250"
   style="enable-background:new 0 0 1000 250;"
   xml:space="preserve"
   xmlns:inkscape="http://www.inkscape.org/namespaces/inkscape"
   xmlns:sodipodi="http://sodipodi.sourceforge.net/DTD/sodipodi-0.dtd"
   xmlns:xlink="http://www.w3.org/1999/xlink"
   xmlns="http://www.w3.org/2000/svg"
   xmlns:svg="http://www.w3.org/2000/svg"><defs
   id="defs2">
					
					
					
					
					
					
					
					
					
					
					
					
					
					
					
					
					
					
					
					
					
				<clipPath
   clipPathUnits="userSpaceOnUse"
   id="clipPath2"><g
     id="g3"
     transform="translate(-720.9521,-228.0334)"><use
       xlink:href="#SVGID_1_"
       style="overflow:visible"
       id="use2" /></g></clipPath><clipPath
   clipPathUnits="userSpaceOnUse"
   id="clipPath3"><g
     id="g4"
     transform="translate(-671.957,-249.4631)"><use
       xlink:href="#SVGID_1_"
       style="overflow:visible"
       id="use3" /></g></clipPath><clipPath
   clipPathUnits="userSpaceOnUse"
   id="clipPath4"><g
     id="g5"
     transform="translate(-608.1602,-242.093)"><use
       xlink:href="#SVGID_1_"
       style="overflow:visible"
       id="use4" /></g></clipPath><clipPath
   clipPathUnits="userSpaceOnUse"
   id="clipPath5"><g
     id="g6"
     transform="translate(-557.3691,-228.4055)"><use
       xlink:href="#SVGID_1_"
       style="overflow:visible"
       id="use5" /></g></clipPath><clipPath
   clipPathUnits="userSpaceOnUse"
   id="clipPath6"><g
     id="g7"
     transform="translate(-499.083,-228.4055)"><use
       xlink:href="#SVGID_1_"
       style="overflow:visible"
       id="use6" /></g></clipPath><clipPath
   clipPathUnits="userSpaceOnUse"
   id="clipPath7"><g
     id="g9"
     transform="translate(-433.4902,-228.0334)"><use
       xlink:href="#SVGID_1_"
       style="overflow:visible"
       id="use7" /></g></clipPath><clipPath
   clipPathUnits="userSpaceOnUse"
   id="clipPath9"><g
     id="g10"
     transform="translate(-383.0078,-269.5305)"><use
       xlink:href="#SVGID_1_"
       style="overflow:visible"
       id="use9" /></g></clipPath><clipPath
   clipPathUnits="userSpaceOnUse"
   id="clipPath10"><g
     id="g11"
     transform="translate(-319.2109,-242.093)"><use
       xlink:href="#SVGID_1_"
       style="overflow:visible"
       id="use10" /></g></clipPath><clipPath
   clipPathUnits="userSpaceOnUse"
   id="clipPath11"><g
     id="g13"
     transform="translate(-266.8096,-228.4055)"><use
       xlink:href="#SVGID_1_"
       style="overflow:visible"
       id="use11" /></g></clipPath><clipPath
   clipPathUnits="userSpaceOnUse"
   id="clipPath13"><g
     id="g14"
     transform="translate(-228.7158,-228.0334)"><use
       xlink:href="#SVGID_1_"
       style="overflow:visible"
       id="use13" /></g></clipPath><clipPath
   clipPathUnits="userSpaceOnUse"
   id="clipPath14"><g
     id="g15"
     transform="translate(-167.8916,-228.4055)"><use
       xlink:href="#SVGID_1_"
       style="overflow:visible"
       id="use14" /></g></clipPath><clipPath
   clipPathUnits="userSpaceOnUse"
   id="clipPath15"><g
     id="g16"
     transform="translate(-130.7891,-269.5305)"><use
       xlink:href="#SVGID_1_"
       style="overflow:visible"
       id="use15" /></g></clipPath><clipPath
   clipPathUnits="userSpaceOnUse"
   id="clipPath16"><g
     id="g17"
     transform="translate(-131.7046,-366.7643)"><use
       xlink:href="#SVGID_1_"
       style="overflow:visible"
       id="use16" /></g></clipPath><clipPath
   clipPathUnits="userSpaceOnUse"
   id="clipPath17"><g
     id="g18"
     transform="translate(-137.6768,-342.0969)"><use
       xlink:href="#SVGID_1_"
       style="overflow:visible"
       id="use17" /></g></clipPath><clipPath
   clipPathUnits="userSpaceOnUse"
   id="clipPath18"><g
     id="g19"
     transform="translate(-639.4893,-288.2775)"><use
       xlink:href="#SVGID_1_"
       style="overflow:visible"
       id="use18" /></g></clipPath><clipPath
   clipPathUnits="userSpaceOnUse"
   id="clipPath19"><g
     id="g21"
     transform="translate(-673.8271,-365.8044)"><use
       xlink:href="#SVGID_1_"
       style="overflow:visible"
       id="use19" /></g></clipPath><clipPath
   clipPathUnits="userSpaceOnUse"
   id="clipPath21"><g
     id="g22"><use
       xlink:href="#SVGID_1_"
       style="overflow:visible"
       id="use21" /></g></clipPath><clipPath
   clipPathUnits="userSpaceOnUse"
   id="clipPath22"><g
     id="g23"
     transform="translate(-496.2754,-288.2775)"><use
       xlink:href="#SVGID_1_"
       style="overflow:visible"
       id="use22" /></g></clipPath><clipPath
   clipPathUnits="userSpaceOnUse"
   id="clipPath23"><g
     id="g25"
     transform="translate(-425.835,-288.2775)"><use
       xlink:href="#SVGID_1_"
       style="overflow:visible"
       id="use23" /></g></clipPath><clipPath
   clipPathUnits="userSpaceOnUse"
   id="clipPath25"><g
     id="g26"
     transform="translate(-366.4263,-365.8044)"><use
       xlink:href="#SVGID_1_"
       style="overflow:visible"
       id="use25" /></g></clipPath><clipPath
   clipPathUnits="userSpaceOnUse"
   id="clipPath26"><g
     id="g27"
     transform="translate(-249.7524,-301.821)"><use
       xlink:href="#SVGID_1_"
       style="overflow:visible"
       id="use26" /></g></clipPath></defs>
<style
   type="text/css"
   id="style1">
	.st0{clip-path:url(#SVGID_00000073710931956118849730000002297232403385665465_);}
</style>
<sodipodi:namedview
   bordercolor="#111111"
   borderopacity="1"
   id="namedview4"
   inkscape:current-layer="g1"
   inkscape:cx="340.52951"
   inkscape:cy="407.60351"
   inkscape:pagecheckerboard="1"
   inkscape:pageopacity="0"
   inkscape:pageshadow="0"
   inkscape:window-height="1386"
   inkscape:window-maximized="0"
   inkscape:window-width="1272"
   inkscape:window-x="3202"
   inkscape:window-y="28"
   inkscape:zoom="0.3876316"
   pagecolor="#ffffff"
   showgrid="false"
   units="in"
   inkscape:showpageshadow="2"
   inkscape:deskcolor="#d1d1d1">
	</sodipodi:namedview>
<g
   id="g8"
   transform="matrix(1.3333333,0,0,-1.3333333,0,793.70133)"
   inkscape:groupmode="layer"
   inkscape:label="INDUCTIVA-logo-white">
	<g
   id="g103"
   transform="translate(-24.933066,74.44066)">
		
		<g
   id="g12"
   transform="translate(-27.087575,129.6334)">
			<g
   id="g1">
				<defs
   id="defs1">
					<rect
   id="SVGID_1_"
   x="-140.3"
   y="-99.2"
   width="1122.5"
   height="793.7" />
				</defs>
				
				
					
				
			<g
   id="g2"
   transform="matrix(0.98123521,0,0,0.98123521,175.33381,13.604153)"
   style="fill:#000000"><path
     d="m 555.37427,246.27625 c -0.6675,0 -1.25175,0.24975 -1.75275,0.75 -0.501,0.4995 -0.7515,1.083 -0.7515,1.74975 l 0.2505,1.37475 31.0515,80.87518 c 0.6675,1.83334 2.00325,2.75001 4.0065,2.75001 h 8.013 c 2.00325,0 3.339,-0.91667 4.0065,-2.75001 l 31.0515,-80.87518 0.2505,-1.37475 c 0,-0.66675 -0.2925,-1.25025 -0.87675,-1.74975 -0.50025,-0.50025 -1.08525,-0.75 -1.75275,-0.75 h -5.8845 c -0.83475,0 -1.54425,0.20775 -2.1285,0.62475 -0.501,0.50025 -0.83475,0.99975 -1.002,1.5 l -7.01175,17.99992 h -41.44275 l -6.8865,-17.99992 c -0.66825,-1.41675 -1.7115,-2.12475 -3.1305,-2.12475 z m 16.02675,20.12467 h 41.44275 l -20.65875,55.25003 z"
     fill="white"
     id="path1"
     style="fill:#000000;stroke-width:0.75" /><path
     d="m 511.74227,246.27625 c -2.1705,0 -3.67275,1.083 -4.5075,3.24975 l -28.1715,80.37493 -0.2505,1.375 c 0,0.66667 0.2505,1.25 0.7515,1.75 0.58425,0.50001 1.20975,0.75001 1.878,0.75001 h 6.00975 c 0.918,0 1.6275,-0.25 2.1285,-0.75001 0.58425,-0.41666 0.96,-0.91666 1.12725,-1.49999 l 24.7905,-71.49994 24.9165,71.49994 c 0.1665,0.58333 0.50025,1.08333 1.00125,1.49999 0.58425,0.50001 1.33575,0.75001 2.25375,0.75001 h 6.00975 c 0.66825,0 1.2525,-0.25 1.7535,-0.75001 0.50025,-0.5 0.75075,-1.08333 0.75075,-1.75 0,-0.58333 -0.0412,-1.04166 -0.12525,-1.375 L 523.88702,249.526 c -0.83475,-2.16675 -2.337,-3.24975 -4.5075,-3.24975 z"
     fill="white"
     id="path2"
     style="fill:#000000;stroke-width:0.75" /><path
     d="m 454.46102,246.27625 c -0.83475,0 -1.50225,0.24975 -2.00325,0.75 -0.501,0.58275 -0.7515,1.2915 -0.7515,2.12475 v 81.74994 c 0,0.83333 0.2505,1.5 0.7515,1.99999 0.501,0.58334 1.1685,0.87501 2.00325,0.87501 h 6.26025 c 0.918,0 1.62825,-0.25 2.1285,-0.75001 0.501,-0.5 0.7515,-1.20833 0.7515,-2.12499 V 249.151 c 0,-0.83325 -0.2925,-1.542 -0.87675,-2.12475 -0.50025,-0.50025 -1.1685,-0.75 -2.00325,-0.75 z"
     fill="white"
     id="path3"
     style="fill:#000000;stroke-width:0.75" /><path
     d="m 401.47876,246.27625 c -0.834,0 -1.5435,0.24975 -2.1285,0.75 -0.50025,0.58275 -0.75075,1.2915 -0.75075,2.12475 v 73.87492 h -24.165 c -0.83475,0 -1.54425,0.25005 -2.1285,0.75 -0.501,0.58335 -0.7515,1.29165 -0.7515,2.12505 v 4.87497 c 0,0.91666 0.2505,1.625 0.7515,2.12499 0.58425,0.58334 1.29375,0.87501 2.1285,0.87501 h 60.099 c 0.91875,0 1.62825,-0.29167 2.1285,-0.87501 0.501,-0.49999 0.7515,-1.20833 0.7515,-2.12499 v -4.87497 c 0,-0.8334 -0.2925,-1.5417 -0.87675,-2.12505 -0.50025,-0.49995 -1.1685,-0.75 -2.00325,-0.75 H 410.49376 V 249.151 c 0,-0.83325 -0.29175,-1.542 -0.876,-2.12475 -0.58425,-0.50025 -1.29375,-0.75 -2.1285,-0.75 z"
     fill="white"
     id="path4"
     style="fill:#000000;stroke-width:0.75" /><path
     d="m 327.47851,245.026 c -11.10225,0 -19.57425,3 -25.4175,9 -5.75925,6.08332 -8.84775,14.37502 -9.2655,24.87502 -0.0832,2.25 -0.1245,5.91668 -0.1245,10.99995 0,5.16668 0.0412,8.91668 0.1245,11.25 0.41775,10.5 3.50625,18.75 9.2655,24.75 5.84325,6.08337 14.31525,9.12503 25.4175,9.12503 7.42875,0 13.731,-1.33334 18.906,-4 5.175,-2.58334 9.05625,-5.99998 11.64375,-10.25 2.6715,-4.25003 4.1325,-8.79165 4.38225,-13.62503 0,-0.75 -0.29175,-1.37497 -0.876,-1.875 -0.501,-0.41662 -1.12725,-0.62497 -1.878,-0.62497 h -6.26025 c -0.83475,0 -1.503,0.20835 -2.00325,0.62497 -0.501,0.4167 -0.87675,1.125 -1.12725,2.12505 -1.419,6.41663 -4.0065,10.91663 -7.7625,13.5 -3.67275,2.5833 -8.68125,3.87495 -15.02475,3.87495 -14.5245,0 -22.0785,-8.08327 -22.66275,-24.24997 -0.0833,-2.25 -0.12525,-5.70833 -0.12525,-10.37498 0,-4.66665 0.042,-8.20837 0.12525,-10.62502 0.58425,-16.0833 8.13825,-24.12525 22.66275,-24.12525 6.26025,0 11.268,1.29225 15.02475,3.87525 3.756,2.58337 6.3435,7.04167 7.7625,13.37505 0.2505,0.99997 0.62625,1.70827 1.12725,2.12497 0.50025,0.41663 1.1685,0.62498 2.00325,0.62498 h 6.26025 c 0.75075,0 1.377,-0.24998 1.878,-0.75 0.58425,-0.41663 0.876,-0.99998 0.876,-1.74998 -0.24975,-4.8333 -1.71075,-9.375 -4.38225,-13.62502 -2.5875,-4.25025 -6.46875,-7.7085 -11.64375,-10.37475 -5.175,-2.58375 -11.47725,-3.87525 -18.906,-3.87525 z"
     fill="white"
     id="path5"
     style="fill:#000000;stroke-width:0.75" /><path
     d="m 241.43476,245.026 c -10.76775,0 -19.07325,2.87475 -24.91575,8.625 -5.84325,5.8335 -8.7645,14.62492 -8.7645,26.37495 v 50.74999 c 0,0.91666 0.2505,1.625 0.7515,2.12499 0.50025,0.58334 1.1685,0.87501 2.00325,0.87501 h 6.00975 c 0.918,0 1.6275,-0.29167 2.1285,-0.87501 0.58425,-0.49999 0.876,-1.20833 0.876,-2.12499 v -50.99997 c 0,-8.16667 1.87875,-14.25 5.63475,-18.25005 3.83925,-3.99967 9.2655,-5.99992 16.2765,-5.99992 6.9285,0 12.27075,2.00025 16.02675,5.99992 3.84,4.08338 5.75925,10.1667 5.75925,18.25005 v 50.99997 c 0,0.91666 0.2505,1.625 0.7515,2.12499 0.501,0.58334 1.2105,0.87501 2.1285,0.87501 h 6.00975 c 0.83475,0 1.503,-0.29167 2.00325,-0.87501 0.58425,-0.49999 0.87675,-1.20833 0.87675,-2.12499 v -50.74999 c 0,-11.75003 -2.92125,-20.54145 -8.7645,-26.37495 -5.75925,-5.75025 -14.0235,-8.625 -24.79125,-8.625 z"
     fill="white"
     id="path6"
     style="fill:#000000;stroke-width:0.75" /><path
     d="m 125.06026,246.27625 c -0.83475,0 -1.50225,0.24975 -2.00325,0.75 -0.501,0.58275 -0.7515,1.2915 -0.7515,2.12475 v 81.62494 c 0,0.91666 0.2505,1.625 0.7515,2.12499 0.501,0.58334 1.1685,0.87501 2.00325,0.87501 h 28.29675 c 12.60375,0 21.70275,-2.83333 27.29475,-8.50002 5.59275,-5.5833 8.47275,-14.04165 8.63925,-25.37497 0.084,-2.41665 0.12525,-5.6667 0.12525,-9.75 0,-4.0833 -0.0412,-7.37498 -0.12525,-9.87503 -0.1665,-7.91662 -1.46025,-14.37495 -3.88125,-19.37497 -2.337,-4.9167 -6.05175,-8.58345 -11.1435,-10.99995 -5.09175,-2.4165 -11.853,-3.62475 -20.283,-3.62475 z m 28.29675,10.37475 c 5.84325,0 10.47525,0.79125 13.89825,2.37525 3.5055,1.66635 6.00975,4.20802 7.512,7.62472 1.58625,3.49995 2.46225,8.2083 2.6295,14.12498 0.1665,5.00002 0.2505,8.12497 0.2505,9.375 0,1.33335 -0.084,4.41667 -0.2505,9.24997 -0.16725,8.33333 -2.1705,14.41665 -6.00975,18.25005 -3.75675,3.91665 -9.975,5.87498 -18.65625,5.87498 h -18.6555 V 256.651 Z"
     fill="white"
     id="path7"
     style="fill:#000000;stroke-width:0.75" /><path
     d="m 38.247004,246.27625 c -0.83475,0 -1.50225,0.24975 -2.00325,0.75 -0.501,0.58275 -0.7515,1.2915 -0.7515,2.12475 v 81.62494 c 0,0.91666 0.2505,1.625 0.7515,2.12499 0.501,0.58334 1.1685,0.87501 2.00325,0.87501 h 5.50875 c 0.83475,0 1.461,-0.16667 1.87875,-0.50001 0.417,-0.33333 0.83475,-0.75 1.25175,-1.24999 l 41.944502,-64.50002 v 63.25002 c 0,0.91666 0.2505,1.625 0.75075,2.12499 0.58425,0.58334 1.29375,0.87501 2.1285,0.87501 h 5.63475 c 0.918,0 1.6275,-0.29167 2.1285,-0.87501 0.584254,-0.49999 0.876004,-1.20833 0.876004,-2.12499 v -81.49969 c 0,-0.834 -0.29175,-1.542 -0.876004,-2.1255 -0.501,-0.5835 -1.1685,-0.8745 -2.00325,-0.8745 h -5.63475 c -1.419,0 -2.42025,0.58275 -3.0045,1.74975 L 46.886254,311.90095 V 249.151 c 0,-0.83325 -0.2925,-1.542 -0.87675,-2.12475 -0.50025,-0.50025 -1.1685,-0.75 -2.00325,-0.75 z"
     fill="white"
     id="path8"
     style="fill:#000000;stroke-width:0.75" /><path
     d="m 4.2547533,246.27625 c -0.83475,0 -1.5030001,0.24975 -2.0032501,0.75 -0.501,0.58275 -0.7515,1.2915 -0.7515,2.12475 v 81.74998 c 0,0.83334 0.2505,1.5 0.7515,2 0.50025,0.58333 1.1685001,0.875 2.0032501,0.875 h 6.2602497 c 0.918,0 1.6275,-0.25 2.1285,-0.75 0.501001,-0.5 0.751501,-1.20833 0.751501,-2.125 V 249.151 c 0,-0.83325 -0.2925,-1.542 -0.876751,-2.12475 -0.501,-0.50025 -1.1685,-0.75 -2.00325,-0.75 z"
     fill="white"
     id="path9"
     style="fill:#000000;stroke-width:0.75" /><path
     d="m -44.999998,333.526 h -51.091726 c -1.218825,0 -1.928775,-1.37656 -1.2222,-2.36963 l 51.091726,-71.80462 c 0.846825,-1.19025 2.7222,-0.591 2.7222,0.86962 V 332.026 c 0,0.82843 -0.67155,1.5 -1.5,1.5 z"
     fill="white"
     id="path10-3"
     style="fill:#000000;stroke-width:0.75" /><path
     d="m -97.499999,243.526 h 51.091726 c 1.218825,0 1.928775,1.37625 1.2222,2.37 l -51.091726,71.80425 c -0.846825,1.1901 -2.7222,0.591 -2.7222,-0.86963 V 245.026 c 0,-0.82875 0.67155,-1.5 1.5,-1.5 z"
     fill="white"
     id="path11"
     style="fill:#000000;stroke-width:0.75" /><rect
     y="-333.526"
     width="12"
     height="90"
     rx="1.5"
     fill="white"
     id="rect11"
     style="fill:#000000;stroke-width:0.75"
     x="-118.5"
     transform="scale(1,-1)" /></g></g>
		</g>
	</g>
</g>
</svg>
