<?xml version="1.0" encoding="utf-8"?>
<!-- Generator: Adobe Illustrator 27.4.0, SVG Export Plug-In . SVG Version: 6.00 Build 0)  -->
<svg version="1.1"
	 id="svg2" xmlns:inkscape="http://www.inkscape.org/namespaces/inkscape" xmlns:svg="http://www.w3.org/2000/svg" xmlns:sodipodi="http://sodipodi.sourceforge.net/DTD/sodipodi-0.dtd" inkscape:version="1.1.1 (c3084ef, 2021-09-22)" sodipodi:docname="inductiva-logo.svg"
	 xmlns="http://www.w3.org/2000/svg" xmlns:xlink="http://www.w3.org/1999/xlink" x="0px" y="0px" viewBox="0 0 1000 250"
	 style="enable-background:new 0 0 1000 250;" xml:space="preserve">
<style type="text/css">
	.st0{clip-path:url(#SVGID_00000073710931956118849730000002297232403385665465_);}
</style>
<sodipodi:namedview  bordercolor="#111111" borderopacity="1" id="namedview4" inkscape:current-layer="g8" inkscape:cx="343.10928" inkscape:cy="408.89339" inkscape:pagecheckerboard="1" inkscape:pageopacity="0" inkscape:pageshadow="0" inkscape:window-height="847" inkscape:window-maximized="0" inkscape:window-width="1381" inkscape:window-x="0" inkscape:window-y="25" inkscape:zoom="0.3876316" pagecolor="#ffffff" showgrid="false" units="in">
	</sodipodi:namedview>
<g id="g8" transform="matrix(1.3333333,0,0,-1.3333333,0,793.70133)" inkscape:groupmode="layer" inkscape:label="INDUCTIVA-logo-white">
	<g id="g103" transform="translate(-24.933066,74.44066)">
		<path id="path10" d="M85.1,495.4h13.5v-77.5H85.1V495.4z"/>
		<g id="g12" transform="translate(-27.087575,129.6334)">
			<g>
				<defs>
					<rect id="SVGID_1_" x="-140.3" y="-99.2" width="1122.5" height="793.7"/>
				</defs>
				<clipPath id="SVGID_00000083077107269244629950000014506287662001423290_">
					<use xlink:href="#SVGID_1_"  style="overflow:visible;"/>
				</clipPath>
				<g id="g14" style="clip-path:url(#SVGID_00000083077107269244629950000014506287662001423290_);">
					<g id="g20" transform="translate(249.7524,301.821)">
						<path id="path22" d="M0,0c3.5,0,6.7,0.6,9.7,1.9c2.9,1.3,5.5,3,7.7,5.3c2.2,2.2,3.9,4.9,5.1,8.1c1.2,3.1,1.8,6.5,1.8,10.1
							c0,3.6-0.6,7-1.8,10.1c-1.2,3.1-2.9,5.7-5.1,7.9c-2.2,2.2-4.7,3.9-7.7,5.2c-3,1.2-6.2,1.9-9.7,1.9h-31.5V0H0z M-44.9-13.5V64
							H0c5.5,0,10.5-0.9,15.1-2.8c4.6-1.8,8.6-4.4,11.9-7.8c3.3-3.3,6-7.3,7.8-12c1.9-4.7,2.8-9.8,2.8-15.4c0-5.6-0.9-10.8-2.8-15.7
							c-1.9-4.8-4.5-9-7.8-12.5c-3.3-3.5-7.3-6.3-11.9-8.3s-9.7-3-15.1-3H-44.9z"/>
					</g>
					<g id="g24" transform="translate(366.4263,365.8044)">
						<path id="path26" d="M0,0h13.2v-43.3c0-6-0.8-11.2-2.3-15.6c-1.6-4.4-4-8.1-7.4-11c-3.3-2.9-7.7-5.1-13-6.5
							c-5.3-1.4-11.7-2.1-19.2-2.1c-7.5,0-13.8,0.7-19.1,2.1c-5.3,1.4-9.6,3.6-13,6.5c-3.3,2.9-5.8,6.6-7.4,11
							c-1.6,4.4-2.3,9.7-2.3,15.6V0h14v-43.3c0-3.9,0.5-7.3,1.4-10c1-2.8,2.5-5.1,4.7-6.8c2.2-1.8,5.1-3.1,8.7-3.9
							c3.6-0.8,8.1-1.2,13.4-1.2s9.8,0.4,13.4,1.2c3.6,0.8,6.5,2.1,8.7,3.9c2.2,1.8,3.7,4.1,4.7,6.8c1,2.8,1.4,6.1,1.4,10L0,0z"/>
					</g>
					<g id="g28" transform="translate(425.835,288.2775)">
						<path id="path30" d="M0,0c-5.4,0-10.4,1-15,3c-4.6,2-8.6,4.8-11.9,8.3c-3.4,3.5-6,7.7-7.9,12.5c-1.9,4.8-2.8,10.1-2.8,15.7
							c0,5.7,0.9,10.9,2.8,15.6c1.9,4.7,4.5,8.7,7.9,12c3.4,3.3,7.4,5.9,11.9,7.7c4.6,1.8,9.6,2.7,15,2.7h42V64H0
							c-3.5,0-6.7-0.6-9.7-1.9c-3-1.2-5.5-3-7.6-5.2c-2.1-2.2-3.8-4.8-5-7.9c-1.2-3.1-1.8-6.4-1.8-10.1c0-3.6,0.6-7,1.8-10.1
							c1.2-3.1,2.9-5.8,5-8.1c2.1-2.2,4.7-4,7.6-5.3c2.9-1.3,6.2-1.9,9.7-1.9h42V0H0z"/>
					</g>
					<g id="g32" transform="translate(496.2754,288.2775)">
						<path id="path34" d="M0,0v64h-29.4v13.5H43V64H13.5V0H0z"/>
					</g>
					<path id="path36" d="M549,365.8h13.5v-77.5H549V365.8z"/>
					<g id="g38" transform="translate(673.8271,365.8044)">
						<path id="path40" d="M0,0l-44.7-74.2c-0.8-1.4-1.7-2.4-2.8-3.2c-1.1-0.8-2.3-1.2-3.7-1.2c-1.5,0-2.8,0.4-3.8,1.2
							c-1.1,0.8-2,1.8-2.8,3.2L-102.4,0"/>
					</g>
					<g id="g42" transform="translate(639.4893,288.2775)">
						<path id="path44" d="M0,0l44.6,74.2c0.8,1.3,1.7,2.4,2.8,3.2c1.1,0.8,2.3,1.2,3.8,1.2c1.5,0,2.8-0.4,3.8-1.2
							c1-0.8,1.9-1.8,2.7-3.2L102.4,0"/>
					</g>
					<g id="g46" transform="translate(137.6768,342.0969)">
						<path id="path48" d="M0,0v-53.8l60.7-1L2.1,0.9C1.3,1.7,0,1.1,0,0"/>
					</g>
					<g id="g50" transform="translate(131.7046,366.7643)">
						<path id="path52" d="M0,0l58.3-55c0.8-0.8,2.1-0.2,2.1,0.9v53.8L0,0z"/>
					</g>
					<g id="g54" transform="translate(130.7891,269.5305)">
						<path id="path56" d="M0,0h-13v-17.8H0c5.7,0,9.7,2.8,9.7,8.9S5.7,0,0,0 M9.7-41.1L-0.9-20.8H-13v-20.3h-3.3V3H0.4
							C7.6,3,13.1-1.2,13.1-8.9c0-6.6-4-10.8-10.2-11.9l10.7-20.4H9.7z"/>
					</g>
					<g id="g58" transform="translate(167.8916,228.4055)">
						<path id="path60" d="M0,0v44.1h26.8v-3H3.3V23.7h19.9v-3H3.3V3h23.4V0H0z"/>
					</g>
					<g id="g62" transform="translate(228.7158,228.0334)">
						<path id="path64" d="M0,0c-6.5,0-10.7,1.8-14.7,5.8l2.4,2.4c4-4,7.2-5.2,12.5-5.2c7,0,11.3,3.3,11.3,9.1
							c0,2.7-0.7,4.8-2.4,6.2c-1.5,1.4-2.8,1.8-6.4,2.4l-5.1,0.8c-3.3,0.5-5.9,1.5-7.9,3.2c-2.3,1.9-3.5,4.6-3.5,8.2
							c0,7.4,5.2,12.1,13.7,12.1c5.5,0,8.9-1.5,12.7-4.8l-2.2-2.2C7.9,40.4,5,42-0.2,42c-6.4,0-10.2-3.5-10.2-9.1
							c0-2.5,0.7-4.5,2.2-5.8c1.5-1.3,3.8-2.2,6.3-2.5l5.1-0.8c4.1-0.6,5.8-1.3,7.9-3c2.4-2,3.8-4.9,3.8-8.5C14.9,4.8,9.2,0,0,0"/>
					</g>
					<g id="g66" transform="translate(266.8096,228.4055)">
						<path id="path68" d="M0,0v44.1h26.8v-3H3.3V23.7h19.9v-3H3.3V3h23.4V0H0z"/>
					</g>
					<g id="g70" transform="translate(319.2109,242.093)">
						<path id="path72" d="M0,0h18.5L9.2,26L0,0z M23.4-13.7L19.5-3H-1.1l-3.8-10.7h-3.6L7.7,30.4h3l16.2-44.1H23.4z"/>
					</g>
					<g id="g74" transform="translate(383.0078,269.5305)">
						<path id="path76" d="M0,0h-13v-17.8H0c5.7,0,9.7,2.8,9.7,8.9S5.7,0,0,0 M9.7-41.1L-0.9-20.8H-13v-20.3h-3.3V3H0.4
							C7.6,3,13.1-1.2,13.1-8.9c0-6.6-4-10.8-10.2-11.9l10.7-20.4H9.7z"/>
					</g>
					<g id="g78" transform="translate(433.4902,228.0334)">
						<path id="path80" d="M0,0c-4.4,0-8.1,1.6-10.7,4.2c-4.1,4.1-4.4,7.5-4.4,18.2s0.3,14.1,4.4,18.2c2.6,2.6,6.3,4.2,10.7,4.2
							c7.9,0,13.5-5,15-12.9h-3.4c-1.3,6.1-5.6,9.9-11.6,9.9c-3.2,0-6.1-1.1-8.4-3.4c-3.2-3.2-3.4-6.8-3.4-16s0.2-12.9,3.4-16
							C-6.1,4.1-3.2,3,0,3c5.9,0,10.4,3.8,11.7,9.9H15C13.5,5,7.8,0,0,0"/>
					</g>
					<g id="g82" transform="translate(499.083,228.4055)">
						<path id="path84" d="M0,0v20.7h-23V0h-3.3v44.1h3.3V23.7H0v20.4h3.3V0H0z"/>
					</g>
					<g id="g86" transform="translate(557.3691,228.4055)">
						<path id="path88" d="M0,0v44.1h3.3V3h23.4V0H0z"/>
					</g>
					<g id="g90" transform="translate(608.1602,242.093)">
						<path id="path92" d="M0,0h18.5L9.2,26L0,0z M23.4-13.7L19.5-3H-1.1l-3.8-10.7h-3.6L7.7,30.4h3l16.2-44.1H23.4z"/>
					</g>
					<g id="g94" transform="translate(671.957,249.4631)">
						<path id="path96" d="M0,0h-13v-18.1H0c6,0,10,3.3,10,9C10-3.3,6,0,0,0 M-0.5,20.1H-13V3h12.5c5.3,0,9.8,2.5,9.8,8.5
							C9.3,17.6,4.8,20.1-0.5,20.1 M0.4-21.1h-16.7V23h16.2c7.3,0,12.8-4.3,12.8-11.5c0-4.6-2.6-8.5-6.9-9.9
							c4.8-1.7,7.6-5.5,7.6-10.7C13.3-16.9,8.1-21.1,0.4-21.1"/>
					</g>
					<g id="g98" transform="translate(720.9521,228.0334)">
						<path id="path100" d="M0,0c-6.5,0-10.7,1.8-14.7,5.8l2.4,2.4c4-4,7.2-5.2,12.5-5.2c7,0,11.3,3.3,11.3,9.1
							c0,2.7-0.7,4.8-2.4,6.2c-1.5,1.4-2.8,1.8-6.4,2.4l-5.1,0.8c-3.3,0.5-5.9,1.5-7.9,3.2c-2.3,1.9-3.5,4.6-3.5,8.2
							c0,7.4,5.2,12.1,13.7,12.1c5.5,0,8.9-1.5,12.7-4.8l-2.2-2.2C7.9,40.4,5,42-0.2,42c-6.4,0-10.2-3.5-10.2-9.1
							c0-2.5,0.7-4.5,2.2-5.8c1.5-1.3,3.8-2.2,6.3-2.5l5.1-0.8c4.1-0.6,5.8-1.3,7.9-3c2.4-2,3.8-4.9,3.8-8.5C14.9,4.8,9.2,0,0,0"/>
					</g>
				</g>
			</g>
		</g>
	</g>
</g>
</svg>
