<?xml version="1.0" encoding= "UTF-8" standalone= "no"?>
<!-- Created with Inkscape (http://www.inkscape.org/) -->

<svg
   version="1.1"
   id="svg2"
   xml:space="preserve"
   width="1000"
   height="250"
   viewBox="0 0 999.99998 250"
   sodipodi:docname="inductiva-logo.svg"
   inkscape:version="1.1.1 (c3084ef, 2021-09-22)"
   xmlns:inkscape="http://www.inkscape.org/namespaces/inkscape"
   xmlns:sodipodi="http://sodipodi.sourceforge.net/DTD/sodipodi-0.dtd"
   xmlns="http://www.w3.org/2000/svg"
   xmlns:svg="http://www.w3.org/2000/svg"><defs
     id="defs6"><clipPath
       clipPathUnits="userSpaceOnUse"
       id="clipPath18"><path
         d="M 0,595.276 H 841.89 V 0 H 0 Z"
         id="path16" /></clipPath></defs><sodipodi:namedview
     id="namedview4"
     pagecolor="#ffffff"
     bordercolor="#111111"
     borderopacity="1"
     inkscape:pageshadow="0"
     inkscape:pageopacity="0"
     inkscape:pagecheckerboard="1"
     showgrid="false"
     inkscape:zoom="0.3876316"
     inkscape:cx="343.10928"
     inkscape:cy="408.89339"
     inkscape:window-width="1381"
     inkscape:window-height="847"
     inkscape:window-x="0"
     inkscape:window-y="25"
     inkscape:window-maximized="0"
     inkscape:current-layer="g8"
     units="in" /><g
     id="g8"
     inkscape:groupmode="layer"
     inkscape:label="INDUCTIVA-logo-white"
     transform="matrix(1.3333333,0,0,-1.3333333,0,793.70133)"><g
       id="g103"
       transform="translate(-24.933066,74.44066)"><path
         d="m 85.090425,495.4374 h 13.543 v -77.527 h -13.543 z"
         style="fill:#ffffff;fill-opacity:1;fill-rule:nonzero;stroke:none"
         id="path10" /><g
         id="g12"
         transform="translate(-27.087575,129.6334)"><g
           id="g14"
           clip-path="url(#clipPath18)"><g
             id="g20"
             transform="translate(249.7524,301.821)"><path
               d="m 0,0 c 3.482,0 6.7,0.64 9.65,1.919 2.95,1.28 5.509,3.04 7.679,5.279 2.168,2.24 3.856,4.922 5.065,8.051 1.208,3.128 1.813,6.505 1.813,10.13 0,3.626 -0.605,6.986 -1.813,10.078 -1.209,3.092 -2.897,5.74 -5.065,7.945 C 15.159,45.604 12.6,47.329 9.65,48.574 6.7,49.817 3.482,50.44 0,50.44 H -31.459 V 0 Z M -44.895,-13.543 V 63.983 H 0 c 5.473,0 10.521,-0.924 15.142,-2.772 4.621,-1.85 8.602,-4.444 11.944,-7.785 3.341,-3.343 5.954,-7.342 7.838,-11.997 1.883,-4.657 2.826,-9.794 2.826,-15.409 0,-5.618 -0.943,-10.843 -2.826,-15.676 C 33.04,5.508 30.427,1.333 27.086,-2.187 23.744,-5.706 19.763,-8.478 15.142,-10.504 10.521,-12.53 5.473,-13.543 0,-13.543 Z"
               style="fill:#ffffff;fill-opacity:1;fill-rule:nonzero;stroke:none"
               id="path22" /></g><g
             id="g24"
             transform="translate(366.4263,365.8044)"><path
               d="m 0,0 h 13.224 v -43.296 c 0,-5.971 -0.784,-11.18 -2.347,-15.622 -1.564,-4.444 -4.017,-8.123 -7.358,-11.038 -3.342,-2.916 -7.662,-5.083 -12.957,-6.504 -5.296,-1.422 -11.713,-2.133 -19.248,-2.133 -7.464,0 -13.846,0.711 -19.142,2.133 -5.296,1.421 -9.615,3.588 -12.956,6.504 -3.343,2.915 -5.795,6.594 -7.358,11.038 -1.565,4.442 -2.346,9.651 -2.346,15.622 V 0 h 13.969 v -43.296 c 0,-3.91 0.48,-7.251 1.44,-10.023 0.96,-2.773 2.522,-5.05 4.692,-6.826 2.168,-1.777 5.065,-3.076 8.692,-3.892 3.625,-0.818 8.104,-1.227 13.436,-1.227 5.332,0 9.81,0.409 13.437,1.227 3.625,0.816 6.521,2.115 8.69,3.892 2.168,1.776 3.733,4.053 4.692,6.826 0.961,2.772 1.44,6.113 1.44,10.023 z"
               style="fill:#ffffff;fill-opacity:1;fill-rule:nonzero;stroke:none"
               id="path26" /></g><g
             id="g28"
             transform="translate(425.835,288.2775)"><path
               d="m 0,0 c -5.404,0 -10.397,1.014 -14.982,3.039 -4.586,2.026 -8.569,4.799 -11.944,8.318 -3.378,3.519 -6.009,7.695 -7.891,12.53 -1.885,4.834 -2.827,10.059 -2.827,15.676 0,5.687 0.942,10.877 2.827,15.57 1.882,4.692 4.513,8.69 7.891,11.996 3.375,3.307 7.358,5.866 11.944,7.678 4.585,1.813 9.578,2.72 14.982,2.72 H 42.016 V 63.984 H 0 c -3.484,0 -6.702,-0.624 -9.651,-1.867 -2.951,-1.244 -5.492,-2.969 -7.624,-5.171 -2.133,-2.205 -3.805,-4.836 -5.012,-7.892 -1.21,-3.057 -1.813,-6.435 -1.813,-10.131 0,-3.625 0.603,-7.003 1.813,-10.131 1.207,-3.129 2.879,-5.811 5.012,-8.051 2.132,-2.239 4.673,-3.998 7.624,-5.278 2.949,-1.28 6.167,-1.92 9.651,-1.92 H 42.016 V 0 Z"
               style="fill:#ffffff;fill-opacity:1;fill-rule:nonzero;stroke:none"
               id="path30" /></g><g
             id="g32"
             transform="translate(496.2754,288.2775)"><path
               d="M 0,0 V 63.984 H -29.433 V 77.527 H 42.976 V 63.984 H 13.543 V 0 Z"
               style="fill:#ffffff;fill-opacity:1;fill-rule:nonzero;stroke:none"
               id="path34" /></g><path
             d="m 548.953,365.804 h 13.543 v -77.527 h -13.543 z"
             style="fill:#ffffff;fill-opacity:1;fill-rule:nonzero;stroke:none"
             id="path36" /><g
             id="g38"
             transform="translate(673.8271,365.8044)"><path
               d="m 0,0 -44.682,-74.221 c -0.783,-1.351 -1.706,-2.418 -2.772,-3.199 -1.067,-0.782 -2.311,-1.173 -3.733,-1.173 -1.492,0 -2.772,0.391 -3.838,1.173 -1.067,0.781 -1.991,1.848 -2.773,3.199 L -102.373,0"
               style="fill:#ffffff;fill-opacity:1;fill-rule:nonzero;stroke:none"
               id="path40" /></g><g
             id="g42"
             transform="translate(639.4893,288.2775)"><path
               d="m 0,0 44.576,74.221 c 0.781,1.35 1.705,2.416 2.773,3.199 1.065,0.782 2.345,1.173 3.839,1.173 1.493,0 2.753,-0.391 3.785,-1.173 1.03,-0.783 1.936,-1.849 2.719,-3.199 L 102.374,0"
               style="fill:#ffffff;fill-opacity:1;fill-rule:nonzero;stroke:none"
               id="path44" /></g><g
             id="g46"
             transform="translate(137.6768,342.0969)"><path
               d="M 0,0 V -53.819 L 60.677,-54.779 2.111,0.906 C 1.315,1.663 0,1.099 0,0"
               style="fill:#ffffff;fill-opacity:1;fill-rule:nonzero;stroke:none"
               id="path48" /></g><g
             id="g50"
             transform="translate(131.7046,366.7643)"><path
               d="m 0,0 58.336,-55.044 c 0.805,-0.76 2.128,-0.189 2.128,0.918 v 53.805 z"
               style="fill:#ffffff;fill-opacity:1;fill-rule:nonzero;stroke:none"
               id="path52" /></g><g
             id="g54"
             transform="translate(130.7891,269.5305)"><path
               d="M 0,0 H -13.007 V -17.838 H 0 c 5.698,0 9.724,2.787 9.724,8.919 C 9.724,-2.787 5.698,0 0,0 m 9.662,-41.125 -10.529,20.314 h -12.14 v -20.314 h -3.345 V 2.973 H 0.434 c 7.184,0 12.634,-4.15 12.634,-11.829 0,-6.628 -3.964,-10.839 -10.157,-11.892 l 10.652,-20.377 z"
               style="fill:#ffffff;fill-opacity:1;fill-rule:nonzero;stroke:none"
               id="path56" /></g><g
             id="g58"
             transform="translate(167.8916,228.4055)"><path
               d="M 0,0 V 44.098 H 26.757 V 41.125 H 3.345 V 23.721 H 23.288 V 20.748 H 3.345 V 2.973 H 26.757 V 0 Z"
               style="fill:#ffffff;fill-opacity:1;fill-rule:nonzero;stroke:none"
               id="path60" /></g><g
             id="g62"
             transform="translate(228.7158,228.0334)"><path
               d="m 0,0 c -6.503,0 -10.652,1.796 -14.678,5.822 l 2.354,2.354 C -8.36,4.212 -5.078,2.973 0.187,2.973 c 6.998,0 11.334,3.344 11.334,9.104 0,2.664 -0.744,4.77 -2.416,6.194 -1.548,1.363 -2.849,1.796 -6.379,2.354 l -5.141,0.805 c -3.345,0.496 -5.945,1.486 -7.866,3.159 -2.291,1.92 -3.468,4.644 -3.468,8.175 0,7.371 5.202,12.078 13.687,12.078 5.451,0 8.919,-1.487 12.698,-4.77 l -2.168,-2.168 c -2.602,2.478 -5.513,4.088 -10.715,4.088 -6.441,0 -10.22,-3.468 -10.22,-9.104 0,-2.539 0.682,-4.522 2.23,-5.822 1.549,-1.3 3.841,-2.168 6.317,-2.54 l 5.141,-0.804 c 4.088,-0.619 5.822,-1.301 7.866,-3.035 2.353,-2.044 3.778,-4.893 3.778,-8.486 C 14.865,4.77 9.229,0 0,0"
               style="fill:#ffffff;fill-opacity:1;fill-rule:nonzero;stroke:none"
               id="path64" /></g><g
             id="g66"
             transform="translate(266.8096,228.4055)"><path
               d="M 0,0 V 44.098 H 26.757 V 41.125 H 3.345 V 23.721 H 23.288 V 20.748 H 3.345 V 2.973 H 26.757 V 0 Z"
               style="fill:#ffffff;fill-opacity:1;fill-rule:nonzero;stroke:none"
               id="path68" /></g><g
             id="g70"
             transform="translate(319.2109,242.093)"><path
               d="M 0,0 H 18.457 L 9.229,25.951 Z M 23.35,-13.688 19.51,-2.973 H -1.053 l -3.84,-10.715 H -8.485 L 7.742,30.41 h 2.973 l 16.227,-44.098 z"
               style="fill:#ffffff;fill-opacity:1;fill-rule:nonzero;stroke:none"
               id="path72" /></g><g
             id="g74"
             transform="translate(383.0078,269.5305)"><path
               d="M 0,0 H -13.007 V -17.838 H 0 c 5.698,0 9.724,2.787 9.724,8.919 C 9.724,-2.787 5.698,0 0,0 m 9.662,-41.125 -10.529,20.314 h -12.14 v -20.314 h -3.345 V 2.973 H 0.434 c 7.184,0 12.634,-4.15 12.634,-11.829 0,-6.628 -3.964,-10.839 -10.157,-11.892 l 10.652,-20.377 z"
               style="fill:#ffffff;fill-opacity:1;fill-rule:nonzero;stroke:none"
               id="path76" /></g><g
             id="g78"
             transform="translate(433.4902,228.0334)"><path
               d="m 0,0 c -4.397,0 -8.114,1.61 -10.715,4.212 -4.088,4.088 -4.397,7.494 -4.397,18.209 0,10.715 0.309,14.121 4.397,18.209 2.601,2.601 6.318,4.212 10.715,4.212 7.928,0 13.501,-4.955 14.988,-12.883 h -3.407 c -1.3,6.132 -5.636,9.909 -11.581,9.909 -3.221,0 -6.07,-1.114 -8.361,-3.406 -3.16,-3.158 -3.408,-6.751 -3.408,-16.041 0,-9.29 0.248,-12.883 3.408,-16.041 C -6.07,4.088 -3.221,2.973 0,2.973 c 5.945,0 10.404,3.778 11.705,9.91 h 3.283 C 13.501,4.955 7.804,0 0,0"
               style="fill:#ffffff;fill-opacity:1;fill-rule:nonzero;stroke:none"
               id="path80" /></g><g
             id="g82"
             transform="translate(499.083,228.4055)"><path
               d="M 0,0 V 20.748 H -22.979 V 0 h -3.344 v 44.098 h 3.344 V 23.721 H 0 V 44.098 H 3.344 V 0 Z"
               style="fill:#ffffff;fill-opacity:1;fill-rule:nonzero;stroke:none"
               id="path84" /></g><g
             id="g86"
             transform="translate(557.3691,228.4055)"><path
               d="M 0,0 V 44.098 H 3.345 V 2.973 H 26.757 V 0 Z"
               style="fill:#ffffff;fill-opacity:1;fill-rule:nonzero;stroke:none"
               id="path88" /></g><g
             id="g90"
             transform="translate(608.1602,242.093)"><path
               d="M 0,0 H 18.457 L 9.229,25.951 Z M 23.35,-13.688 19.51,-2.973 H -1.053 l -3.84,-10.715 H -8.485 L 7.742,30.41 h 2.973 l 16.227,-44.098 z"
               style="fill:#ffffff;fill-opacity:1;fill-rule:nonzero;stroke:none"
               id="path92" /></g><g
             id="g94"
             transform="translate(671.957,249.4631)"><path
               d="M 0,0 H -13.007 V -18.085 H 0 c 6.008,0 9.972,3.345 9.972,9.043 C 9.972,-3.345 6.008,0 0,0 M -0.496,20.067 H -13.007 V 2.973 h 12.511 c 5.327,0 9.786,2.477 9.786,8.548 0,6.069 -4.459,8.546 -9.786,8.546 M 0.371,-21.058 H -16.352 V 23.04 h 16.228 c 7.309,0 12.759,-4.273 12.759,-11.519 0,-4.646 -2.602,-8.486 -6.875,-9.911 4.768,-1.672 7.555,-5.511 7.555,-10.652 0,-7.866 -5.202,-12.016 -12.944,-12.016"
               style="fill:#ffffff;fill-opacity:1;fill-rule:nonzero;stroke:none"
               id="path96" /></g><g
             id="g98"
             transform="translate(720.9521,228.0334)"><path
               d="m 0,0 c -6.504,0 -10.653,1.796 -14.679,5.822 l 2.354,2.354 c 3.964,-3.964 7.246,-5.203 12.511,-5.203 6.998,0 11.334,3.344 11.334,9.104 0,2.664 -0.744,4.77 -2.416,6.194 -1.548,1.363 -2.849,1.796 -6.379,2.354 l -5.141,0.805 c -3.345,0.496 -5.945,1.486 -7.866,3.159 -2.291,1.92 -3.468,4.644 -3.468,8.175 0,7.371 5.202,12.078 13.688,12.078 5.45,0 8.918,-1.487 12.697,-4.77 l -2.168,-2.168 c -2.602,2.478 -5.513,4.088 -10.715,4.088 -6.441,0 -10.22,-3.468 -10.22,-9.104 0,-2.539 0.682,-4.522 2.23,-5.822 1.549,-1.3 3.841,-2.168 6.317,-2.54 L 3.22,23.722 c 4.088,-0.619 5.822,-1.301 7.866,-3.035 2.353,-2.044 3.778,-4.893 3.778,-8.486 C 14.864,4.77 9.228,0 0,0"
               style="fill:#ffffff;fill-opacity:1;fill-rule:nonzero;stroke:none"
               id="path100" /></g></g></g></g></g></svg>
